inDegrees=yes
name=ik_data_2024_11_07_17_10
DataType=double
version=3
OpenSimVersion=4.5.1
endheader
time	pelvis_tilt	pelvis_list	pelvis_rotation	pelvis_tx	pelvis_ty	pelvis_tz	hip_flexion_r	hip_adduction_r	hip_rotation_r	knee_angle_r	knee_angle_r_beta	ankle_angle_r	subtalar_angle_r	mtp_angle_r	hip_flexion_l	hip_adduction_l	hip_rotation_l	knee_angle_l	knee_angle_l_beta	ankle_angle_l	subtalar_angle_l	mtp_angle_l	lumbar_extension	lumbar_bending	lumbar_rotation	arm_flex_r	arm_add_r	arm_rot_r	elbow_flex_r	pro_sup_r	wrist_flex_r	wrist_dev_r	arm_flex_l	arm_add_l	arm_rot_l	elbow_flex_l	pro_sup_l	wrist_flex_l	wrist_dev_l
0	0.001464018447339572	0.03663082856519938	-94.90021290200212	0	0.9399999999999999	0	0.3100821664581412	-0.001554500026582278	-0.08773327361818135	0.515072975292281	0.008989719306893707	-1.13896881730284	0	0	0.304607743790902	-0.01754645707418976	-0.06195571909436861	0.5148352919379839	0.008985570949784038	-1.13896881730284	0	0	0	0	0	0	-0.7478700872426077	0	10.99782539366222	10.95876406809888	0	0	0	-0.7478700872426077	0	10.99782539366222	10.95876406809888	0	0
1.375	-0.07887588138239129	-0.1577029402144753	-94.88983661533452	0	0.9399999999999999	0	0.05809850245800065	0.08244177963743933	-0.08002532713105703	0.4347868270309114	0.007588461675988484	-1.146484840605136	0	0	0.09816207005890309	-0.07377438497805623	-0.06202532103715944	0.5088809528782517	0.008881648128411608	-1.146484840605136	0	0	0	0	0	0	-0.7510651851129	0	11.09361551072349	11.04836667641827	0	0	0	-0.7510651851129	0	11.09361551072349	11.04836667641827	0	0
2.604	-0.09821796354818949	-0.187200872890739	-94.88460599339655	0	0.9399999999999999	0	0.05373716699998193	0.1070814459791799	-0.07831372851778724	0.4118833125956383	0.00718871993881492	-1.149566080828547	0	0	0.07436944575864339	-0.09073682163515238	-0.04736507780183715	0.5093924031680503	0.008890574619928872	-1.149566080828547	0	0	0	0	0	0	-0.7523694313560541	0	11.13286867563297	11.08510400374474	0	0	0	-0.7523694313560541	0	11.13286867563297	11.08510400374474	0	0
3.958	-0.02881804193856502	-0.2386758672343882	-94.87825645431452	0	0.9399999999999999	0	0.02555729891118995	0.04031855117522444	-0.08241919303103147	0.3996977200872381	0.006976041228236982	-1.152757892024244	0	0	0.03221287836653452	-0.02170973030373196	-0.04137753148213291	0.5111921009611966	0.008921985271960151	-1.152757892024244	0	0	0	0	0	0	-0.7537312395522698	0	11.17322051661011	11.12284339045416	0	0	0	-0.7537312395522698	0	11.17322051661011	11.12284339045416	0	0
5.309	0.06842407948558843	-0.2783533915583524	-94.87807400053937	0	0.9399999999999999	0	-0.0132525221182224	-0.09662735699878226	-0.08572344143014458	0.404933161934415	0.007067416926266912	-1.157346004456764	0	0	-0.004831850004079071	0.07628282692003452	-0.03588976779932022	0.5100641949082599	0.008902299597683232	-1.157346004456764	0	0	0	0	0	0	-0.7557330122707125	0	11.23028087909239	11.17612627321888	0	0	0	-0.7557330122707125	0	11.23028087909239	11.17612627321888	0	0
6.531	0.03861269502261385	-0.2580128209266857	-94.88510721203227	0	0.9399999999999999	0	0.01474194400947621	-0.1099141285790405	-0.07548832271244636	0.4182496852340253	0.007299834102763652	-4.968227564114446	0	0	-0.004378336368160416	0.05247039174519615	-0.0412401850676312	0.4990195057758293	0.008709533407463081	-4.968227564114446	0	0	0	0	0	0	-12.37716630892851	0	75.97361463494629	44.58681749157333	0	0	0	-12.37716630892851	0	75.97361463494629	44.58681749157333	0	0
7.991	0.0008385816161492408	-0.1561354486679998	-94.89104468297853	0	0.9399999999999999	0	0.1114904532139419	-0.0398307322590379	-0.07886982251070813	0.4001612654213302	0.006984131620549145	-4.968378228800108	0	0	0.1015166445241141	0.01281220360859079	-0.05806346176711	0.5040654781194542	0.008797602238823912	-4.968378228800108	0	0	0	0	0	0	-12.37854406955208	0	75.97261053823142	44.58800377697733	0	0	0	-12.37854406955208	0	75.97261053823142	44.58800377697733	0	0
9.157999999999999	0.00526744639272629	-0.02677968957071069	-94.90338322709363	0	0.9399999999999999	0	0.3151505983028799	-0.02736084438228084	-0.06408523292821147	0.3911556233213369	0.006826953514648047	-4.968731872673013	0	0	0.2308296733540042	-0.00179497861710444	-0.0726267411375149	0.5066166807343415	0.008842129124339184	-4.968731872673013	0	0	0	0	0	0	-12.38188762791023	0	75.97018801824802	44.59082286923495	0	0	0	-12.38188762791023	0	75.97018801824802	44.59082286923495	0	0
10.398	-0.0677764461227327	0.0329003123920524	-94.90833397468695	0	0.9399999999999999	0	0.3601080729035061	0.07176287553266807	-0.04721859642275607	0.342163071212696	0.005971872171397372	-4.968882640144153	0	0	0.2913547852030041	-0.0802785862098257	-0.07683656834317217	0.511118378739761	0.008920698576464214	-4.968882640144153	0	0	0	0	0	0	-12.38325895882919	0	75.96918516960827	44.5920115505803	0	0	0	-12.38325895882919	0	75.96918516960827	44.5920115505803	0	0
11.727	-0.07975877175728453	0.04852598181214627	-94.90863971198735	0	0.9399999999999999	0	0.4266611148174019	0.1068370583303434	-0.04371569970164501	0.3339715088463493	0.005828902437222164	-4.969062108516174	0	0	0.3059527227882798	-0.09074847465340453	-0.07874944224811571	0.5069264036555009	0.008847534809082309	-4.969062108516174	0	0	0	0	0	0	-12.38493501083025	0	75.96796646832166	44.59343849045246	0	0	0	-12.38493501083025	0	75.96796646832166	44.59343849045246	0	0
13.253	-0.03165023536316156	0.1878529750801849	-94.91768649503496	0	0.9399999999999999	0	0.5854412605184226	0.1736769582795396	-0.04794749970362856	0.3582224596263938	0.006252161375073028	-4.96932815404524	0	0	0.4482224357853878	-0.06193908740955779	-0.08526768912069253	0.5108411728217654	0.008915860420489179	-4.96932815404524	0	0	0	0	0	0	-12.38749548615374	0	75.9661150918931	44.5955763153075	0	0	0	-12.38749548615374	0	75.9661150918931	44.5955763153075	0	0
14.467	-0.1126360332755725	0.2206716162670517	-94.92338887981467	0	0.9399999999999999	0	0.5780350908477763	0.2173261983158553	-0.04084505434090178	0.3602356482383338	0.006287298144815036	-4.969354301644401	0	0	0.4780291717767753	-0.1421300637927359	-0.08516974494192921	0.5068983836622957	0.008847045767944492	-4.969354301644401	0	0	0	0	0	0	-12.38775875069083	0	75.96592709700759	44.59578866340971	0	0	0	-12.38775875069083	0	75.96592709700759	44.59578866340971	0	0
15.642	-0.1551193195776758	0.3348921862536705	-94.94115899214705	0	0.9399999999999999	0	0.7153321081005428	0.3230027645863641	-0.01957434692488756	0.351419350514624	0.006133424721700217	-4.969583037379849	0	0	0.5830684647565011	-0.1941654715168928	-0.1076332624463025	0.5117023899070202	0.008930891494201303	-4.969583037379849	0	0	0	0	0	0	-12.38992843819645	0	75.96435493677674	44.5976161263958	0	0	0	-12.38992843819645	0	75.96435493677674	44.5976161263958	0	0
17.464	-0.1439151409953886	0.3617199493481973	-94.93876396396405	0	0.9399999999999999	0	0.7199792378465791	0.3614879480875032	-0.01849247692763841	0.3466047212353299	0.006049393588513615	-4.969600671861069	0	0	0.6189797995691219	-0.1865125401762249	-0.101002093167306	0.5067887152476518	0.008845131693023513	-4.969600671861069	0	0	0	0	0	0	-12.3901049714116	0	75.96422862448837	44.59775922603821	0	0	0	-12.3901049714116	0	75.96422862448837	44.59775922603821	0	0
18.663	-0.1705846007588129	0.3983538163944598	-94.94051951728272	0	0.9399999999999999	0	0.6908879927519916	0.3632087228538187	-0.01765373786844946	0.3571598505259987	0.006233615347609478	-4.969630118939944	0	0	0.6439632150422756	-0.2127844360829729	-0.1090334835661459	0.5108382236543904	0.008915808947808291	-4.969630118939944	0	0	0	0	0	0	-12.3904070829158	0	75.96401444131837	44.59799906475699	0	0	0	-12.3904070829158	0	75.96401444131837	44.59799906475699	0	0
19.867	-0.1908594908577567	0.3990148590865268	-94.9400327422824	0	0.9399999999999999	0	0.5878447830564101	0.3546871296159553	-0.01876182160305137	0.3637136747184786	0.006348001158365112	-4.969657515621691	0	0	0.6541000174871373	-0.2354134247505602	-0.1054481962478276	0.5146084471568677	0.008981611761462593	-4.969657515621691	0	0	0	0	0	0	-12.39071918316789	0	75.96379954557918	44.59822799468903	0	0	0	-12.39071918316789	0	75.96379954557918	44.59822799468903	0	0
21.641	-0.1618220016140995	0.3963197371433113	-94.94126936727932	0	0.9399999999999999	0	0.605474298761924	0.3053561986898722	-0.02122593788688031	0.4053367635230972	0.007074461102855697	-4.969675351749027	0	0	0.6559138344273108	-0.2090407625768626	-0.1065840579601973	0.5151164570969758	0.008990478207550339	-4.969675351749027	0	0	0	0	0	0	-12.39089729257099	0	75.96367202879732	44.59837265052188	0	0	0	-12.39089729257099	0	75.96367202879732	44.59837265052188	0	0
